<svg width="63" height="69" viewBox="0 0 63 69" fill="none" xmlns="http://www.w3.org/2000/svg">
<path d="M8.72366 48.9614L7.31883 47.4071C6.90036 47.8555 6.36252 48.1842 5.73483 48.1842C4.41966 48.1842 3.49307 47.168 3.49307 45.3449C3.49307 43.5813 4.41966 42.5354 5.61527 42.5354C6.27285 42.5354 6.75109 42.7745 7.19927 43.1631L8.6041 41.5789C7.91663 40.9213 6.87047 40.3235 5.61527 40.3235C2.98494 40.3235 0.862915 42.1767 0.862915 45.4345C0.862915 48.7522 3.04472 50.3961 5.46582 50.3961C6.78098 50.3961 7.91663 49.9179 8.72366 48.9614Z" fill="#061933"/>
<path d="M12.648 46.1669L12.8034 45.4943C13.0124 44.5677 13.2666 43.4021 13.4758 42.4158H13.5356C13.7448 43.4021 14.0287 44.5677 14.2381 45.4943L14.3935 46.1669H12.648ZM12.0112 40.5028L9.08215 50.2167H11.7123L12.1889 48.1543H14.8526L15.329 50.2167H18.0488L15.1198 40.5028H12.0112Z" fill="#061933"/>
<path d="M21.5754 48.1544V42.5651H21.665C22.9054 42.5651 23.9066 43.0434 23.9066 45.315C23.9066 47.5865 22.9054 48.1544 21.665 48.1544H21.5754ZM26.537 45.315C26.537 41.8778 24.5791 40.5029 21.7996 40.5029H19.005V50.2166H21.9489C24.5791 50.2166 26.537 48.7522 26.537 45.315Z" fill="#061933"/>
<path d="M34.4873 44.508H30.9903V42.6548H35.07V40.5029H28.4199V50.2168H30.9903V46.6599H34.4873V44.508Z" fill="#061933"/>
<path d="M40.4647 48.1843C39.6278 48.1843 39.1197 47.2577 39.1197 45.315C39.1197 43.4618 39.6278 42.5352 40.4647 42.5352C41.3016 42.5352 41.8098 43.4618 41.8098 45.315C41.8098 47.2577 41.3016 48.1843 40.4647 48.1843ZM40.4647 40.3235C38.1036 40.3235 36.4895 42.0273 36.4895 45.315C36.4895 48.6924 38.1036 50.396 40.4647 50.396C42.8259 50.396 44.4399 48.6924 44.4399 45.315C44.4399 42.0273 42.8259 40.3235 40.4647 40.3235Z" fill="#061933"/>
<path d="M53.0478 46.4507V40.503H50.567V46.7496C50.567 47.5866 50.2832 48.1844 49.4611 48.1844C48.639 48.1844 48.3851 47.5866 48.3851 46.7496V40.503H45.8147V46.4507C45.8147 48.8717 46.9206 50.3961 49.4611 50.3961C52.0016 50.3961 53.0478 48.8717 53.0478 46.4507Z" fill="#061933"/>
<path d="M57.3516 42.5353H58.2184C59.2347 42.5353 59.7725 42.8043 59.7725 43.6413C59.7725 44.478 59.2347 44.9264 58.2184 44.9264H57.3516V42.5353ZM57.3516 46.9589H58.2795L59.9519 50.2167H62.8213L60.7102 46.4449C61.6556 45.9356 62.2833 45.0291 62.2833 43.6413C62.2833 41.2202 60.4899 40.503 58.3978 40.503H54.7812V50.2167H57.3516V46.9589Z" fill="#061933"/>
<path d="M9.65143 58.4894C9.65143 57.4064 9.04986 56.7325 8.00299 56.3474L7.10038 55.9744C6.31823 55.6857 5.8731 55.5534 5.8731 55.1922C5.8731 54.8314 6.18596 54.6628 6.64308 54.6628C7.38926 54.6628 7.83457 54.8554 8.39998 55.2284L9.43486 53.929C8.67686 53.2189 7.69013 52.8819 6.76354 52.8819C4.98266 52.8819 3.77918 53.9769 3.77918 55.3127C3.77918 56.4437 4.52536 57.1537 5.42779 57.4907L6.40253 57.8997C7.12455 58.2006 7.5337 58.2969 7.5337 58.7542C7.5337 59.0069 7.29297 59.2113 6.66724 59.2113C5.95722 59.2113 5.25937 58.8984 4.6698 58.4533L3.49048 59.8732C4.36893 60.6313 5.5001 60.9922 6.52298 60.9922C8.54424 60.9922 9.65143 59.813 9.65143 58.4894Z" fill="#061933"/>
<path d="M16.7032 57.8154V53.0264H14.7057V58.0562C14.7057 58.7299 14.477 59.2113 13.8153 59.2113C13.1534 59.2113 12.9489 58.7299 12.9489 58.0562V53.0264H10.8793V57.8154C10.8793 59.7649 11.7697 60.9922 13.8153 60.9922C15.8609 60.9922 16.7032 59.7649 16.7032 57.8154Z" fill="#061933"/>
<path d="M20.2415 54.6628H21.0116C21.7816 54.6628 22.2147 54.9275 22.2147 55.6255C22.2147 56.3234 21.8299 56.7324 21.0116 56.7324H20.2415V54.6628ZM20.2415 58.369H21.1079C22.7443 58.369 24.2363 57.5387 24.2363 55.6255C24.2363 53.6521 22.7925 53.0264 21.1079 53.0264H18.1719V60.8479H20.2415V58.369Z" fill="#061933"/>
<path d="M28.232 56.7325H27.4618V54.6629H28.232C29.0021 54.6629 29.4354 54.9276 29.4354 55.6254C29.4354 56.3235 29.0501 56.7325 28.232 56.7325ZM28.3282 53.0264H25.3922V60.8478H27.4618V58.3691H28.3282C29.9649 58.3691 31.4569 57.5388 31.4569 55.6254C31.4569 53.652 30.0128 53.0264 28.3282 53.0264Z" fill="#061933"/>
<path d="M38.4004 59.1152H35.0672V53.0264H32.9974V60.8479H38.4004V59.1152Z" fill="#061933"/>
<path d="M45.4883 54.7591V53.0264H39.8568V54.7591H41.6377V59.1152H39.8568V60.8479H45.4883V59.1152H43.7074V54.7591H45.4883Z" fill="#061933"/>
<path d="M49.3634 57.7193H52.131V55.9864H49.3634V54.7591H52.6123V53.0264H47.2938V60.8477H52.7326V59.1152H49.3634V57.7193Z" fill="#061933"/>
<path d="M58.5452 56.3474L57.6426 55.9744C56.8605 55.6857 56.4153 55.5532 56.4153 55.1922C56.4153 54.8312 56.7282 54.6628 57.1853 54.6628C57.9313 54.6628 58.3768 54.8554 58.9422 55.2284L59.9771 53.9288C59.2191 53.2189 58.2324 52.8819 57.3058 52.8819C55.5249 52.8819 54.3214 53.9769 54.3214 55.3127C54.3214 56.4437 55.0676 57.1537 55.97 57.4907L56.9448 57.8997C57.6668 58.2006 58.0759 58.2969 58.0759 58.754C58.0759 59.0067 57.8352 59.2113 57.2095 59.2113C56.4995 59.2113 55.8016 58.8984 55.212 58.4533L54.0327 59.8732C54.9112 60.6313 56.0423 60.9922 57.065 60.9922C59.0867 60.9922 60.1937 59.8129 60.1937 58.4895C60.1937 57.4064 59.5921 56.7324 58.5452 56.3474Z" fill="#061933"/>
<path d="M8.74871 64.1234L8.10795 65.447C8.09023 65.4822 8.07502 65.5182 8.06267 65.5542C8.05014 65.5901 8.0394 65.6272 8.03063 65.6657H8.02401C8.00325 65.6011 7.98678 65.5501 7.97425 65.5134C7.96172 65.4767 7.95331 65.4529 7.94884 65.4427L7.32812 64.1234H6.72925L7.74122 66.1516V67.2919H8.26707V66.1407L9.30535 64.1234H8.74871Z" fill="#061933"/>
<path d="M10.7559 66.7351C10.6491 66.8689 10.4934 66.9361 10.2886 66.9361C10.0838 66.9361 9.92419 66.8697 9.8091 66.7361C9.69419 66.603 9.63674 66.4131 9.63674 66.1673C9.63674 65.9227 9.69455 65.7312 9.81035 65.5926C9.9258 65.4543 10.0846 65.385 10.2864 65.385C10.4912 65.385 10.6473 65.4507 10.7548 65.5819C10.8624 65.7129 10.9161 65.9035 10.9161 66.1541C10.9161 66.4075 10.8628 66.6012 10.7559 66.7351ZM10.3085 64.9764C9.94012 64.9764 9.64927 65.0827 9.43574 65.2955C9.22222 65.5083 9.11465 65.8027 9.11304 66.1782C9.11304 66.5334 9.21649 66.8165 9.42357 67.0277C9.63048 67.2391 9.91076 67.3447 10.2643 67.3447C10.6253 67.3447 10.9113 67.2364 11.1227 67.0189C11.3339 66.8018 11.4396 66.5088 11.4396 66.1408C11.4396 65.7829 11.3399 65.499 11.1402 65.2889C10.9406 65.0791 10.6634 64.9749 10.3085 64.9764Z" fill="#061933"/>
<path d="M13.4217 66.3285C13.4217 66.5127 13.3734 66.66 13.2769 66.7704C13.1804 66.8808 13.0557 66.9361 12.9026 66.9361C12.745 66.9361 12.6268 66.8853 12.5479 66.7836C12.4691 66.682 12.4298 66.5302 12.4298 66.3285V65.0294H11.9193V66.3883C11.9193 66.7078 11.9861 66.9472 12.1194 67.1064C12.2526 67.2653 12.4518 67.3448 12.7169 67.3448C12.8686 67.3448 13.0027 67.3108 13.1192 67.2433C13.2354 67.1754 13.3335 67.0745 13.4129 66.9406H13.4217V67.292H13.9366V65.0294H13.4217V66.3285Z" fill="#061933"/>
<path d="M17.3968 66.2334C17.3968 66.4396 17.3422 66.6085 17.2332 66.7396C17.1242 66.8707 16.9821 66.9361 16.8067 66.9361C16.627 66.9361 16.4848 66.8707 16.3803 66.7396C16.2756 66.6085 16.2234 66.4263 16.2234 66.1938C16.2234 65.9418 16.2779 65.7441 16.3869 65.6003C16.4959 65.457 16.6463 65.385 16.8376 65.385C17.0012 65.385 17.1353 65.4412 17.2398 65.5542C17.3443 65.6667 17.3968 65.8069 17.3968 65.9751V66.2334ZM17.3901 65.319H17.3812C17.3164 65.2039 17.2301 65.1183 17.1227 65.0612C17.0152 65.0047 16.8856 64.9764 16.7338 64.9764C16.4231 64.9764 16.1731 65.0888 15.9837 65.3143C15.7945 65.5398 15.6998 65.8395 15.6998 66.2135C15.6998 66.5658 15.7856 66.8423 15.9572 67.0433C16.1289 67.2443 16.3562 67.3447 16.639 67.3447C16.8052 67.3447 16.9504 67.3114 17.0741 67.2443C17.1979 67.1772 17.3003 67.0762 17.3812 66.9406H17.3901V67.2919H17.9049V63.9422H17.3901V65.319Z" fill="#061933"/>
<path d="M18.9432 65.9398C18.9669 65.7601 19.0297 65.6174 19.1322 65.5122C19.2346 65.4066 19.3586 65.3543 19.5045 65.3543C19.6592 65.3543 19.7789 65.4032 19.8636 65.5011C19.9482 65.599 19.9906 65.745 19.9906 65.9398H18.9432ZM19.5088 64.9763C19.1922 64.9763 18.9325 65.0882 18.7302 65.3123C18.5276 65.536 18.4261 65.8293 18.4261 66.1914C18.4278 66.5553 18.5264 66.8384 18.7224 67.0409C18.9182 67.2437 19.1922 67.3448 19.5443 67.3448C19.718 67.3448 19.8772 67.3221 20.0214 67.2766C20.1659 67.2308 20.308 67.157 20.4479 67.0552L20.2158 66.735C20.1113 66.8102 20.0053 66.8648 19.8977 66.8986C19.7902 66.9326 19.6944 66.9494 19.6107 66.9494C19.4043 66.9494 19.2439 66.8938 19.1288 66.7826C19.0141 66.6715 18.9522 66.5089 18.9432 66.2952H20.4877V66.0722C20.4877 65.723 20.4005 65.4531 20.2258 65.2623C20.0513 65.0717 19.8122 64.9763 19.5088 64.9763Z" fill="#061933"/>
<path d="M23.6207 64.9763C23.4528 64.9763 23.3061 65.0134 23.1809 65.0878C23.0558 65.1623 22.9504 65.2738 22.865 65.4227C22.8149 65.2812 22.7335 65.1714 22.6209 65.0934C22.5082 65.0155 22.3737 64.9763 22.2177 64.9763C22.063 64.9763 21.9241 65.012 21.8012 65.0837C21.678 65.155 21.5783 65.2557 21.5017 65.385H21.493V65.0295H20.978V67.292H21.493V66.0169C21.493 65.8269 21.5372 65.674 21.6256 65.5584C21.714 65.443 21.8287 65.385 21.9701 65.385C22.1176 65.385 22.2284 65.4333 22.3029 65.5298C22.3771 65.6262 22.4144 65.7716 22.4144 65.9663V67.292H22.927V66.0125C22.927 65.8374 22.973 65.6887 23.0651 65.5675C23.157 65.4458 23.2717 65.385 23.4084 65.385C23.5633 65.385 23.6757 65.434 23.7455 65.5321C23.8154 65.63 23.8503 65.785 23.8503 65.9971V67.292H24.363V65.8911C24.363 65.586 24.3012 65.3574 24.1773 65.2049C24.0537 65.0526 23.8682 64.9763 23.6207 64.9763Z" fill="#061933"/>
<path d="M26.2168 66.3725C26.2168 66.542 26.1668 66.6822 26.0666 66.7939C25.9665 66.905 25.833 66.9605 25.6667 66.9605C25.5606 66.9605 25.4738 66.9294 25.406 66.8676C25.3381 66.8057 25.3043 66.7196 25.3043 66.6092C25.3043 66.5002 25.3401 66.4173 25.4115 66.3607C25.4828 66.304 25.59 66.2651 25.733 66.2446L26.2168 66.1807V66.3725ZM25.8148 64.9763C25.6379 64.9763 25.4758 65.0015 25.3286 65.0515C25.1813 65.1014 25.0383 65.1794 24.9 65.2858L25.1232 65.5927C25.2277 65.5118 25.3356 65.452 25.4468 65.4137C25.5579 65.3756 25.6675 65.3563 25.7749 65.3563C25.9103 65.3563 26.0181 65.391 26.0976 65.4601C26.177 65.5293 26.2168 65.6405 26.2168 65.7941V65.8401L25.6225 65.9199C25.3559 65.958 25.1547 66.0418 25.0194 66.1705C24.8839 66.2995 24.816 66.4642 24.816 66.6645C24.816 66.8749 24.8839 67.0409 25.0194 67.1626C25.1547 67.2843 25.3251 67.3448 25.5296 67.3448C25.6769 67.3448 25.8072 67.3122 25.9207 67.2465C26.034 67.1812 26.1292 67.0826 26.2057 66.9514H26.2146V67.292H26.7118V65.8734C26.7118 65.5745 26.6381 65.35 26.4908 65.2007C26.3435 65.0511 26.1181 64.9763 25.8148 64.9763Z" fill="#061933"/>
<path d="M28.6051 64.9763C28.4432 64.9763 28.3011 65.0112 28.1786 65.0812C28.0566 65.1512 27.9533 65.2563 27.8695 65.3962H27.8606V65.0295H27.3458V67.292H27.8606V66.0017C27.8606 65.8233 27.9105 65.6758 28.0109 65.5598C28.111 65.4433 28.2375 65.385 28.3909 65.385C28.5439 65.385 28.659 65.4378 28.7356 65.543C28.8121 65.6482 28.8504 65.8063 28.8504 66.0169V67.292H29.363V65.9087C29.363 65.6024 29.2985 65.3703 29.1697 65.2126C29.0408 65.0549 28.8527 64.9763 28.6051 64.9763Z" fill="#061933"/>
<path d="M31.5373 66.2334C31.5373 66.4396 31.4827 66.6085 31.3737 66.7396C31.2647 66.8707 31.1226 66.9361 30.9472 66.9361C30.7675 66.9361 30.6254 66.8707 30.5208 66.7396C30.4161 66.6085 30.3639 66.4263 30.3639 66.1938C30.3639 65.9418 30.4184 65.7441 30.5274 65.6003C30.6364 65.457 30.7868 65.385 30.9781 65.385C31.1417 65.385 31.2758 65.4412 31.3803 65.5542C31.4848 65.6667 31.5373 65.8069 31.5373 65.9751V66.2334ZM31.5306 65.319H31.5217C31.4569 65.2039 31.3706 65.1183 31.2632 65.0612C31.1557 65.0047 31.0261 64.9764 30.8743 64.9764C30.5636 64.9764 30.3136 65.0888 30.1242 65.3143C29.935 65.5398 29.8403 65.8395 29.8403 66.2135C29.8403 66.5658 29.9261 66.8423 30.0977 67.0433C30.2694 67.2443 30.4967 67.3447 30.7795 67.3447C30.9457 67.3447 31.0909 67.3114 31.2146 67.2443C31.3384 67.1772 31.4408 67.0762 31.5217 66.9406H31.5306V67.2919H32.0454V63.9422H31.5306V65.319Z" fill="#061933"/>
<path d="M32.4652 67.8642H32.8518L33.1899 66.7638H32.7081L32.4652 67.8642Z" fill="#061933"/>
<path d="M37.9338 66.4169C37.9205 66.4788 37.9089 66.5365 37.8996 66.5903C37.8899 66.6442 37.8836 66.6952 37.8806 66.7437H37.8718C37.8659 66.6791 37.8586 66.6201 37.8496 66.5673C37.8409 66.5141 37.8307 66.4676 37.8187 66.4278L37.2178 64.1234H36.6766L36.0337 66.4058C36.0144 66.4722 35.9993 66.5336 35.9882 66.5903C35.9771 66.6469 35.9701 66.6997 35.9673 66.7484H35.9539C35.951 66.6818 35.9456 66.6211 35.9376 66.5648C35.9293 66.5089 35.9193 66.4575 35.9077 66.4103L35.3353 64.1234H34.7588L35.6448 67.292H36.2522L36.8556 65.1021C36.8702 65.0522 36.8824 64.999 36.8919 64.9432C36.9014 64.8871 36.9084 64.8284 36.913 64.7665H36.9218C36.9247 64.8267 36.9307 64.8854 36.9393 64.9421C36.9483 64.9987 36.9594 65.0529 36.9726 65.1046L37.5669 67.292H38.1634L39.0318 64.1234H38.4861L37.9338 66.4169Z" fill="#061933"/>
<path d="M39.6127 65.9398C39.6363 65.7601 39.6991 65.6174 39.8017 65.5122C39.904 65.4066 40.0281 65.3543 40.174 65.3543C40.3286 65.3543 40.4483 65.4032 40.533 65.5011C40.6177 65.599 40.6601 65.745 40.6601 65.9398H39.6127ZM40.1782 64.9763C39.8616 64.9763 39.6019 65.0882 39.3997 65.3123C39.1971 65.536 39.0956 65.8293 39.0956 66.1914C39.0972 66.5553 39.1958 66.8384 39.3918 67.0409C39.5876 67.2437 39.8616 67.3448 40.2137 67.3448C40.3875 67.3448 40.5466 67.3221 40.6909 67.2766C40.8353 67.2308 40.9774 67.157 41.1174 67.0552L40.8852 66.735C40.7807 66.8102 40.6747 66.8648 40.5672 66.8986C40.4596 66.9326 40.3639 66.9494 40.2801 66.9494C40.0737 66.9494 39.9134 66.8938 39.7983 66.7826C39.6835 66.6715 39.6216 66.5089 39.6127 66.2952H41.1571V66.0722C41.1571 65.723 41.0699 65.4531 40.8953 65.2623C40.7207 65.0717 40.4816 64.9763 40.1782 64.9763Z" fill="#061933"/>
<path d="M43.6603 65.924C43.4983 65.8859 43.3831 65.8464 43.3145 65.8059C43.2461 65.7653 43.2118 65.7032 43.2118 65.6192C43.2118 65.5399 43.2454 65.4777 43.3124 65.4325C43.3795 65.3878 43.4733 65.3651 43.5941 65.3651C43.6795 65.3651 43.7627 65.3783 43.8438 65.405C43.9248 65.4315 44.014 65.4755 44.1112 65.5374L44.3188 65.1839C44.2084 65.112 44.0949 65.0592 43.9785 65.0259C43.8622 64.9928 43.7398 64.9763 43.6118 64.9763C43.3539 64.9763 43.1456 65.0413 42.9864 65.1718C42.8275 65.3021 42.7479 65.47 42.7479 65.6744C42.7479 65.8528 42.8049 65.9963 42.919 66.1055C43.0332 66.2145 43.2316 66.3019 43.5146 66.3683C43.6546 66.4008 43.7536 66.4415 43.8117 66.4911C43.8699 66.5403 43.8991 66.6018 43.8991 66.6752C43.8991 66.7683 43.864 66.8377 43.794 66.8843C43.724 66.9305 43.6258 66.9539 43.4992 66.9539C43.3827 66.9539 43.275 66.9349 43.1754 66.8975C43.0759 66.8599 42.9821 66.8102 42.8937 66.7482L42.6705 67.1105C42.7928 67.1887 42.9213 67.2473 43.0561 67.2863C43.1908 67.3255 43.3319 67.3446 43.4792 67.3446C43.7518 67.3446 43.9678 67.2796 44.1276 67.1493C44.2875 67.0189 44.3673 66.8442 44.3673 66.6246C44.3673 66.439 44.3107 66.2908 44.1973 66.1793C44.0838 66.0681 43.9048 65.9831 43.6603 65.924Z" fill="#061933"/>
<path d="M46.3007 66.3285C46.3007 66.5127 46.2524 66.66 46.1559 66.7704C46.0595 66.8808 45.9347 66.9361 45.7817 66.9361C45.624 66.9361 45.5059 66.8853 45.4269 66.7836C45.3482 66.682 45.3088 66.5302 45.3088 66.3285V65.0294H44.7983V66.3883C44.7983 66.7078 44.8651 66.9472 44.9984 67.1064C45.1316 67.2653 45.3308 67.3448 45.5959 67.3448C45.7477 67.3448 45.8817 67.3108 45.9982 67.2433C46.1144 67.1754 46.2125 67.0745 46.292 66.9406H46.3007V67.292H46.8157V65.0294H46.3007V66.3285Z" fill="#061933"/>
<path d="M48.9963 66.7151C48.8888 66.8626 48.7386 66.936 48.5457 66.936C48.3835 66.936 48.2503 66.8783 48.1458 66.7627C48.0411 66.6469 47.9888 66.5023 47.9888 66.3285V66.0743C47.9888 65.8726 48.0445 65.7072 48.1558 65.5782C48.267 65.4497 48.413 65.3849 48.5943 65.3849C48.7724 65.3849 48.9108 65.4465 49.0096 65.5696C49.1084 65.6926 49.1576 65.8682 49.1576 66.0964C49.1576 66.3616 49.1039 66.568 48.9963 66.7151ZM48.7601 64.9763C48.5965 64.9763 48.4513 65.0115 48.3248 65.0822C48.1981 65.1531 48.0912 65.2591 48.0044 65.4006H47.9955V65.0294H47.4807V68.3326H47.9955V66.9934H48.0044C48.0794 67.1115 48.1716 67.1992 48.2806 67.2576C48.3894 67.3156 48.5149 67.3448 48.6563 67.3448C48.9713 67.3448 49.2219 67.2311 49.4073 67.0034C49.5929 66.776 49.6858 66.4728 49.6858 66.0942C49.6858 65.7527 49.6043 65.4808 49.4415 65.2791C49.2788 65.0774 49.0516 64.9763 48.7601 64.9763Z" fill="#061933"/>
<path d="M51.7228 66.7151C51.6152 66.8626 51.465 66.936 51.2721 66.936C51.1099 66.936 50.9768 66.8783 50.8723 66.7627C50.7675 66.6469 50.7153 66.5023 50.7153 66.3285V66.0743C50.7153 65.8726 50.7709 65.7072 50.8823 65.5782C50.9934 65.4497 51.1395 65.3849 51.3208 65.3849C51.4989 65.3849 51.6372 65.4465 51.736 65.5696C51.8348 65.6926 51.884 65.8682 51.884 66.0964C51.884 66.3616 51.8303 66.568 51.7228 66.7151ZM51.4865 64.9763C51.3229 64.9763 51.1778 65.0115 51.0512 65.0822C50.9245 65.1531 50.8177 65.2591 50.7309 65.4006H50.7219V65.0294H50.2072V68.3326H50.7219V66.9934H50.7309C50.8059 67.1115 50.898 67.1992 51.007 67.2576C51.1158 67.3156 51.2413 67.3448 51.3827 67.3448C51.6977 67.3448 51.9483 67.2311 52.1337 67.0034C52.3193 66.776 52.4122 66.4728 52.4122 66.0942C52.4122 65.7527 52.3308 65.4808 52.1679 65.2791C52.0052 65.0774 51.7781 64.9763 51.4865 64.9763Z" fill="#061933"/>
<path d="M52.9337 67.2919H53.4485V63.9423H52.9337V67.2919Z" fill="#061933"/>
<path d="M55.0129 66.6092C54.9982 66.6565 54.9864 66.6987 54.9776 66.7361C54.9686 66.7739 54.9613 66.8074 54.9554 66.8367H54.9443C54.9341 66.785 54.9244 66.7399 54.9157 66.7009C54.9067 66.6617 54.8987 66.6298 54.8913 66.6047L54.3655 65.0295H53.7954L54.6948 67.2874L54.5224 67.694C54.487 67.7778 54.4399 67.8412 54.381 67.8841C54.322 67.9267 54.2506 67.948 54.1664 67.948C54.1358 67.948 54.1068 67.946 54.0805 67.9414C54.054 67.9369 54.025 67.9296 53.9944 67.9194L53.9037 68.3194C53.9508 68.3309 53.9991 68.3403 54.0483 68.347C54.0977 68.3536 54.1505 68.3568 54.2064 68.3568C54.3993 68.3568 54.5654 68.3022 54.7046 68.1932C54.8439 68.0844 54.954 67.926 55.0349 67.7184L56.0755 65.0295H55.5586L55.0129 66.6092Z" fill="#061933"/>
<path d="M56.6279 66.7239C56.535 66.7239 56.4579 66.7539 56.3959 66.8134C56.334 66.8731 56.3032 66.9465 56.3032 67.0333C56.3032 67.1217 56.334 67.1955 56.3959 67.2542C56.4579 67.3133 56.535 67.3426 56.6279 67.3426C56.7208 67.3426 56.7985 67.3133 56.8611 67.2542C56.9236 67.1955 56.9549 67.1217 56.9549 67.0333C56.9549 66.9465 56.9236 66.8731 56.8611 66.8134C56.7985 66.7539 56.7208 66.7239 56.6279 66.7239Z" fill="#061933"/>
<path d="M36.3553 12.6474C38.3543 12.6474 39.9748 11.0269 39.9748 9.02785H31.8311V9.02732H28.2119V26.7081C30.2101 26.7081 31.8311 25.0871 31.8311 23.0887V21.7949C31.7939 21.7845 31.7513 21.782 31.7024 21.7897C31.0844 21.8799 30.4664 21.9622 29.8484 22.0458C30.0737 21.8296 30.4433 21.3107 29.2149 20.9887C29.2715 20.9631 29.3295 20.9359 29.3835 20.9052C29.587 20.7842 29.7904 20.6657 29.9887 20.5368C30.1072 20.4597 30.1084 20.3746 30.0068 20.2767C29.8947 20.1711 29.7762 20.0707 29.6525 19.9587C29.7145 19.9691 29.7673 19.9807 29.8213 19.9884C30.223 20.0425 30.6248 20.0978 31.0264 20.1493C31.078 20.1557 31.136 20.1441 31.1848 20.1248C31.2815 20.0876 31.3123 19.9973 31.248 19.915C31.1965 19.8493 31.1283 19.7888 31.0561 19.7462C31.0212 19.7257 30.9853 19.7038 30.9505 19.6832C30.6042 19.4772 30.2552 19.2777 29.9076 19.0754C29.744 18.9802 29.5806 18.8862 29.3989 18.7806C29.4775 18.7767 29.5393 18.7794 29.5985 18.769C29.7209 18.7472 29.8444 18.7278 29.9604 18.6892C30.0839 18.6467 30.1213 18.5644 30.1084 18.433C30.0853 18.1973 29.9912 17.9863 29.8895 17.7776C29.8432 17.6849 29.793 17.5949 29.7338 17.4841C29.775 17.5059 29.7981 17.5215 29.8238 17.5329C30.0273 17.6269 30.2294 17.7261 30.4367 17.8123C30.5192 17.8458 30.6144 17.8562 30.7046 17.8666C30.8256 17.8793 30.9015 17.8304 30.9312 17.7146C30.9684 17.5716 30.9929 17.4261 31.0212 17.282C31.0277 17.2523 31.0304 17.2228 31.0355 17.1764C31.1682 17.3966 31.2929 17.6026 31.4166 17.8086C31.5557 18.0416 31.6935 18.2746 31.8311 18.5064C31.9045 18.6314 31.9793 18.7549 32.0527 18.8785C32.0745 18.9133 32.1041 18.9455 32.135 18.9737C32.1826 19.0189 32.2381 19.0511 32.3063 19.0189C32.3643 18.9931 32.4248 18.8927 32.4157 18.8282C32.3643 18.4355 32.3128 18.0429 32.2587 17.6502C32.2496 17.5805 32.2342 17.5124 32.2226 17.4467C32.3165 17.5406 32.4107 17.6373 32.5071 17.73C32.6616 17.878 32.7106 17.882 32.829 17.7055C32.9668 17.4982 33.0853 17.2756 33.2102 17.0579C33.2218 17.0386 33.2308 17.018 33.2412 16.9935C33.5759 18.2372 34.1153 17.7982 34.3136 17.578C34.2982 17.6811 34.2827 17.7853 34.2673 17.8884C34.1951 18.4112 34.123 18.9326 34.0509 19.4554C34.0459 19.4978 34.0459 19.5402 34.0496 19.5816C34.0536 19.6215 34.0652 19.6562 34.0895 19.6832H34.1282C36.1265 19.6832 37.7476 18.0622 37.7476 16.0638H31.8311V12.6474H36.3553Z" fill="#061933"/>
<path d="M38.7458 3.79868C38.7458 3.98429 38.9227 3.91914 38.9927 3.91037C39.0406 3.90357 41.3246 3.96352 42.7397 4.00165C42.6446 3.85721 42.5444 3.71653 42.4393 3.57996L39.0041 3.61308C39.0041 3.61308 38.7458 3.61308 38.7458 3.79868Z" fill="#061933"/>
<path d="M38.7927 4.51429C38.7927 4.51429 38.8389 4.63492 39.1453 4.60646C39.3701 4.58642 41.82 4.59841 43.0948 4.60611C43.0285 4.47939 42.9598 4.35428 42.8862 4.23221L39.0861 4.3285C39.0861 4.3285 38.7927 4.31007 38.7927 4.51429Z" fill="#061933"/>
<path d="M38.8127 5.1966C38.8127 5.37093 39.042 5.32941 39.1559 5.33603C39.2491 5.34104 42.2406 5.29737 43.4015 5.28019C43.3403 5.12429 43.2751 4.97054 43.2034 4.82038L39.0773 5.03015C39.0773 5.03015 38.8127 5.02191 38.8127 5.1966Z" fill="#061933"/>
<path d="M43.8823 7.82242C43.8823 7.00053 43.7389 6.21229 43.4774 5.48025L39.6135 5.86041C39.6135 5.86041 37.469 6.03581 36.494 5.69395C36.3412 5.63936 35.8375 5.37196 35.7496 5.29983C35.6478 5.21661 35.5401 5.14859 35.4307 5.08792H28.2114V7.82242H43.8823Z" fill="#061933"/>
<path d="M35.9351 3.3992C35.9351 3.3992 37.0083 2.80069 38.4176 2.982L42.1828 3.26622C40.9058 1.79176 39.0213 0.857648 36.9175 0.857648H28.2114V3.78491H35.3332C35.5313 3.68522 35.7364 3.55957 35.9351 3.3992Z" fill="#061933"/>
<path d="M26.6042 34.8781V0.857754C22.7576 0.857754 19.6394 3.97599 19.6394 7.82251V27.9133C19.6394 31.7598 22.7576 34.8781 26.6042 34.8781Z" fill="#061933"/>
<path d="M28.7643 30.4079C28.9474 30.4379 29.1305 30.4692 29.3136 30.5C29.6055 30.5491 29.8974 30.5979 30.1892 30.6477C30.4756 30.6966 30.7619 30.7456 31.0485 30.7939C32.4508 31.0305 33.8646 31.1354 35.2854 31.1526C35.9879 31.161 36.6904 31.1594 37.3931 31.1612C37.4625 31.1614 37.532 31.1535 37.6014 31.149C38.0532 31.1197 38.4004 30.9061 38.6433 30.5317C38.8462 30.2185 39.1024 29.9994 39.4038 29.8611C39.6175 29.763 39.8534 29.7043 40.1124 29.6869C40.449 29.6644 40.7783 29.6758 41.1011 29.7173C41.2865 29.7411 41.4694 29.7762 41.65 29.8215C41.9743 29.9028 42.2911 30.0178 42.5993 30.1691C42.6861 30.2117 42.7726 30.255 42.8579 30.3031C42.9365 30.3474 43.0115 30.3982 43.0854 30.4508C43.1676 30.5092 43.2485 30.5695 43.3312 30.6273C43.3333 30.6287 43.3357 30.6305 43.338 30.6321L43.3922 30.478C43.3953 30.4705 43.3985 30.463 43.4015 30.4555C43.401 30.4555 43.4006 30.4555 43.4001 30.4555L43.4708 30.2548L43.4774 30.2555C43.7387 29.5233 43.8823 28.7353 43.8823 27.9132H28.2114V30.3737C28.2286 30.3722 28.2449 30.3683 28.2626 30.3683C28.4298 30.3676 28.5991 30.3808 28.7643 30.4079Z" fill="#061933"/>
<path d="M41.3114 33.3126C40.8508 33.3838 40.386 33.3844 39.9214 33.3192C39.7862 33.3002 39.6581 33.2689 39.5369 33.226C39.2536 33.1255 39.0112 32.9573 38.8135 32.7239C38.7485 32.6471 38.6868 32.5657 38.6318 32.4744C38.364 32.0287 37.9764 31.7776 37.4562 31.7561C36.7253 31.7259 35.9936 31.7053 35.2621 31.6869C34.4721 31.6672 33.682 31.6609 32.8924 31.7067C32.0757 31.7542 31.264 31.851 30.4526 31.9509C30.3707 31.9609 30.2885 31.9707 30.2064 31.9809C30.0805 31.9963 29.9545 32.0116 29.8285 32.0271C29.3775 32.0823 28.9265 32.1374 28.4754 32.1923C28.4575 32.1945 28.4395 32.1941 28.4216 32.1963C28.3458 32.2052 28.2766 32.2027 28.2114 32.193V34.8781H36.9175C38.5847 34.8781 40.1127 34.2898 41.3114 33.3126Z" fill="#061933"/>
</svg>
