<svg width="210" height="50" viewBox="0 0 210 50" fill="none" xmlns="http://www.w3.org/2000/svg">
<path d="M60.2573 46.678H55.2976V32.3238H49.5244V27.8364H66.0305V32.3238H60.2573V46.678Z" fill="#FEB700"/>
<path d="M72.0296 46.9405C67.8572 46.9405 64.6557 43.6602 64.6557 39.619C64.6557 35.5777 67.8572 32.2975 72.0296 32.2975C76.2021 32.2975 79.4036 35.5777 79.4036 39.619C79.4036 43.6602 76.2021 46.9405 72.0296 46.9405ZM72.0296 42.9255C73.4205 42.9255 74.7326 41.8233 74.7326 39.619C74.7326 37.4147 73.4205 36.3388 72.0296 36.3388C70.6388 36.3388 69.3267 37.4147 69.3267 39.619C69.3267 41.8233 70.6388 42.9255 72.0296 42.9255Z" fill="#FEB700"/>
<path d="M87.1566 46.9405C82.9842 46.9405 79.7827 43.6602 79.7827 39.619C79.7827 35.5777 82.9842 32.2975 87.1566 32.2975C91.3291 32.2975 94.5306 35.5777 94.5306 39.619C94.5306 43.6602 91.3291 46.9405 87.1566 46.9405ZM87.1566 42.9255C88.5474 42.9255 89.8595 41.8233 89.8595 39.619C89.8595 37.4147 88.5474 36.3388 87.1566 36.3388C85.7658 36.3388 84.4537 37.4147 84.4537 39.619C84.4537 41.8233 85.7658 42.9255 87.1566 42.9255Z" fill="#FEB700"/>
<path d="M100.342 46.678H95.8019V27.8364H100.342V46.678Z" fill="#FEB700"/>
<path d="M106.985 39.2516V46.678H102.498V27.8364H106.985V34.082C108.008 32.9798 109.032 32.2975 110.816 32.2975C113.598 32.2975 115.566 34.1607 115.566 37.5984V46.678H111.079V39.0941C111.079 37.3097 110.449 36.3388 109.084 36.3388C107.982 36.3388 106.985 37.126 106.985 39.2516Z" fill="#FEB700"/>
<path d="M122.69 29.2797C122.69 30.7492 121.509 31.8252 119.803 31.8252C118.098 31.8252 116.917 30.7492 116.917 29.2797C116.917 27.7839 118.098 26.708 119.803 26.708C121.509 26.708 122.69 27.7839 122.69 29.2797ZM122.086 46.678H117.599V32.5599H122.086V46.678Z" fill="#FEB700"/>
<path d="M128.731 40.1701V46.678H124.243V32.5599H128.363V35.0529C129.439 33.3997 131.67 32.455 133.927 32.455V37.126C130.751 36.8111 128.731 37.0473 128.731 40.1701Z" fill="#FEB700"/>
<path d="M141.109 46.9142C136.753 46.9142 133.84 43.9751 133.84 39.5927C133.84 35.3678 136.884 32.2975 141.083 32.2975C145.754 32.2975 148.876 36.1026 148.063 40.7474H138.485C138.721 42.5318 139.561 43.4241 141.004 43.4241C142.263 43.4241 143.103 42.8992 143.497 41.8758H147.984C147.118 45.1035 144.625 46.9142 141.109 46.9142ZM140.978 35.604C139.639 35.604 138.852 36.365 138.537 37.9395H143.261C143.208 36.5225 142.316 35.604 140.978 35.604Z" fill="#FEB700"/>
<path d="M154.047 43.9489C154.047 45.6284 152.893 46.8092 151.213 46.8092C149.534 46.8092 148.353 45.6284 148.353 43.9489C148.353 42.2432 149.534 41.0623 151.213 41.0623C152.893 41.0623 154.047 42.2432 154.047 43.9489Z" fill="#FEB700"/>
<path d="M161.313 46.9405C157.115 46.9405 154.202 43.9226 154.202 39.619C154.202 35.4203 157.246 32.2975 161.313 32.2975C165.197 32.2975 168.084 34.9217 168.477 38.858H163.701C163.623 37.3097 162.704 36.3388 161.34 36.3388C159.765 36.3388 158.847 37.5459 158.847 39.619C158.847 41.7446 159.739 42.9255 161.34 42.9255C162.73 42.9255 163.596 41.9808 163.701 40.38H168.477C168.084 44.4212 165.328 46.9405 161.313 46.9405Z" fill="#FEB700"/>
<path d="M176.216 46.9405C172.043 46.9405 168.842 43.6602 168.842 39.619C168.842 35.5777 172.043 32.2975 176.216 32.2975C180.388 32.2975 183.59 35.5777 183.59 39.619C183.59 43.6602 180.388 46.9405 176.216 46.9405ZM176.216 42.9255C177.607 42.9255 178.919 41.8233 178.919 39.619C178.919 37.4147 177.607 36.3388 176.216 36.3388C174.825 36.3388 173.513 37.4147 173.513 39.619C173.513 41.8233 174.825 42.9255 176.216 42.9255Z" fill="#FEB700"/>
<path d="M189.348 46.678H184.861V32.5599H188.981V34.2919C190.057 33.0323 191.212 32.2975 193.049 32.2975C194.833 32.2975 196.25 33.0585 197.037 34.4756C198.244 33.111 199.504 32.2975 201.577 32.2975C204.385 32.2975 206.353 34.1607 206.353 37.5984V46.678H201.866V38.9892C201.866 37.3622 201.21 36.3388 199.924 36.3388C198.796 36.3388 197.851 37.126 197.851 39.0154V46.678H193.363V38.9892C193.363 37.3622 192.707 36.3388 191.422 36.3388C190.267 36.3388 189.348 37.126 189.348 39.0154V46.678Z" fill="#FEB700"/>
<path d="M53.5494 20.2805H50.9229V3.13601H53.5494V20.2805Z" fill="white"/>
<path d="M58.8892 13.1409V20.2805H56.4775V7.6251H58.722V9.72637C59.5817 8.31756 61.0143 7.38632 62.7574 7.38632C65.3602 7.38632 67.0794 9.05778 67.0794 12.0903V20.2805H64.6677V12.9022C64.6677 10.7293 63.7126 9.51147 61.9217 9.51147C60.2741 9.51147 58.8892 10.8964 58.8892 13.1409Z" fill="white"/>
<path d="M68.7777 13.9528C68.7777 10.1084 70.9745 7.38632 74.3891 7.38632C76.0844 7.38632 77.5649 8.24593 78.4483 9.79801V3.13601H80.86V20.2805H78.6155V18.0121C77.7081 19.6119 76.1799 20.5193 74.3891 20.5193C70.9745 20.5193 68.7777 17.7494 68.7777 13.9528ZM71.2849 13.9528C71.2849 16.7704 72.7654 18.3702 74.8666 18.3702C76.9201 18.3702 78.4483 16.6988 78.4483 13.905C78.4483 11.0635 76.8724 9.51147 74.8666 9.51147C72.7654 9.51147 71.2849 11.0874 71.2849 13.9528Z" fill="white"/>
<path d="M91.5192 15.0751V7.6251H93.9309V20.2805H91.6863V18.2747C91.0177 19.588 89.5373 20.5193 87.8181 20.5193C85.2631 20.5193 83.4961 19.015 83.4961 15.7675V7.6251H85.9078V15.29C85.9078 17.4868 87.0062 18.3941 88.5822 18.3941C90.2059 18.3941 91.5192 17.0569 91.5192 15.0751Z" fill="white"/>
<path d="M106.712 16.5078C106.712 18.9911 104.778 20.5193 101.411 20.5193C98.0681 20.5193 96.0862 18.8717 95.8475 16.1496H98.1636C98.2592 17.7255 99.5247 18.7045 101.459 18.7045C103.154 18.7045 104.276 18.1076 104.276 16.9137C104.276 15.863 103.632 15.4094 102.056 15.0989L100.002 14.7169C97.6622 14.2632 96.3489 13.0693 96.3489 11.1591C96.3489 8.93839 98.283 7.38632 101.22 7.38632C104.253 7.38632 106.306 9.01003 106.521 11.6127H104.205C104.062 10.0845 102.939 9.20105 101.244 9.20105C99.7157 9.20105 98.689 9.84576 98.689 10.9442C98.689 11.9709 99.3337 12.4485 100.862 12.735L103.011 13.1409C105.518 13.5946 106.712 14.693 106.712 16.5078Z" fill="white"/>
<path d="M115.724 17.9404V20.0656C114.984 20.3999 114.34 20.5193 113.575 20.5193C111.235 20.5193 109.612 19.2537 109.612 16.46V9.67861H106.818V7.6251H109.612V3.87623H112.023V7.6251H115.844V9.67861H112.023V15.9108C112.023 17.6539 112.859 18.2747 114.149 18.2747C114.722 18.2747 115.223 18.1792 115.724 17.9404Z" fill="white"/>
<path d="M119.96 13.8095V20.2805H117.549V7.6251H119.793V10.2994C120.677 8.55634 122.587 7.45795 124.664 7.45795V9.96515C121.942 9.82188 119.96 11.0158 119.96 13.8095Z" fill="white"/>
<path d="M128.913 4.68809C128.913 5.59546 128.197 6.28792 127.17 6.28792C126.143 6.28792 125.403 5.59546 125.403 4.68809C125.403 3.75684 126.143 3.08826 127.17 3.08826C128.197 3.08826 128.913 3.75684 128.913 4.68809ZM128.388 20.2805H125.976V7.6251H128.388V20.2805Z" fill="white"/>
<path d="M138.803 20.2805V18.3225C138.015 19.7313 136.607 20.5193 134.744 20.5193C132.118 20.5193 130.398 19.015 130.398 16.6988C130.398 14.2155 132.38 12.926 136.153 12.926C136.893 12.926 137.49 12.9499 138.517 13.0693V12.1381C138.517 10.3233 137.538 9.29657 135.866 9.29657C134.099 9.29657 133.025 10.3472 132.953 12.1142H130.757C130.876 9.27269 132.906 7.38632 135.866 7.38632C138.994 7.38632 140.809 9.1533 140.809 12.1619V20.2805H138.803ZM132.691 16.6271C132.691 17.9404 133.67 18.8001 135.222 18.8001C137.251 18.8001 138.517 17.5345 138.517 15.6004V14.5736C137.586 14.4542 136.917 14.4304 136.296 14.4304C133.885 14.4304 132.691 15.1467 132.691 16.6271Z" fill="white"/>
<path d="M145.872 20.2805H143.437V3.13601H145.872V20.2805Z" fill="white"/>
<path fill-rule="evenodd" clip-rule="evenodd" d="M9.81035 33.0553C6.79003 32.6533 3.57653 32.0754 0.00170898 31.3212C0.0302506 31.8289 0.0783659 32.3353 0.145929 32.8391C0.295955 32.8793 0.45477 32.9207 0.620281 32.9638C2.10676 33.351 4.13329 33.8789 5.1825 34.9733C5.4688 35.272 5.69227 35.625 5.83972 36.0115C6.21817 37.0027 6.03769 38.0698 5.46352 38.8851C5.14339 39.3997 4.66719 39.8207 4.05551 40.0723L3.9972 40.0963C3.84891 40.1577 3.71638 40.2518 3.60945 40.3715C3.57348 40.4117 3.54071 40.4545 3.51138 40.4995C3.4784 40.5627 3.45172 40.6292 3.43186 40.6982C3.38744 40.8524 3.3783 41.0146 3.40511 41.1728C3.43193 41.331 3.49402 41.4811 3.58677 41.6121C4.86991 43.4361 6.45436 45.0284 8.27218 46.3205C8.40302 46.4135 8.55313 46.4758 8.71135 46.5027C8.86957 46.5297 9.03183 46.5206 9.18608 46.4762C9.34032 46.4319 9.48257 46.3533 9.60226 46.2464C9.70471 46.1549 9.78837 46.0446 9.84887 45.9218L9.85854 45.8993C9.87174 45.8676 9.88544 45.8361 9.89964 45.8048L9.90145 45.8004C10.0641 45.4071 10.3061 45.0516 10.6125 44.7562C10.9188 44.4607 11.2829 44.2316 11.6818 44.0833C12.0808 43.935 12.5061 43.8705 12.9311 43.8941C13.3561 43.9176 13.7717 44.0286 14.1518 44.2201C14.4403 44.3644 14.7038 44.5541 14.9321 44.7819C15.369 45.2272 15.6649 45.7914 15.7827 46.4039C15.9006 47.0164 15.8352 47.65 15.5947 48.2255C15.5389 48.3605 15.5109 48.5052 15.5122 48.6509C15.5132 48.7188 15.5204 48.7867 15.5338 48.8539C15.5478 48.924 15.5684 48.9922 15.5951 49.0578C15.6103 49.0944 15.6275 49.1302 15.6467 49.1651C15.7252 49.3079 15.8347 49.4312 15.9672 49.526C16.0997 49.6207 16.2518 49.6845 16.4122 49.7127C17.5034 49.9012 18.6067 49.997 19.7102 50C20.8137 49.997 21.9169 49.9012 23.0081 49.7127C23.1686 49.6845 23.3207 49.6207 23.4531 49.526C23.5856 49.4312 23.6951 49.3079 23.7736 49.1651C23.7928 49.1302 23.81 49.0943 23.8252 49.0576C23.852 48.9921 23.8725 48.9239 23.8865 48.8539C23.9 48.7866 23.9071 48.7186 23.9081 48.6507C23.9094 48.505 23.8814 48.3605 23.8256 48.2255C23.5851 47.65 23.5198 47.0164 23.6376 46.4039C23.7555 45.7914 24.0513 45.2272 24.4882 44.7819C24.7165 44.5541 24.98 44.3644 25.2685 44.2201C25.6486 44.0286 26.0642 43.9176 26.4892 43.8941C26.9142 43.8705 27.3395 43.935 27.7385 44.0833C28.1375 44.2316 28.5015 44.4607 28.8079 44.7562C29.1142 45.0516 29.3563 45.4071 29.5189 45.8004L29.5207 45.8048C29.5349 45.8361 29.5486 45.8676 29.5618 45.8993L29.5715 45.9218C29.632 46.0446 29.7156 46.1549 29.8181 46.2464C29.9378 46.3533 30.08 46.4319 30.2343 46.4762C30.3885 46.5206 30.5508 46.5297 30.709 46.5027C30.8672 46.4758 31.0173 46.4135 31.1481 46.3205C32.966 45.0284 34.5504 43.4361 35.8336 41.6121C35.9263 41.4811 35.9884 41.331 36.0152 41.1728C36.042 41.0146 36.0329 40.8524 35.9885 40.6982C35.9686 40.6292 35.9419 40.5627 35.9089 40.4995C35.8796 40.4545 35.8468 40.4117 35.8109 40.3715C35.7039 40.2518 35.5714 40.1577 35.4231 40.0963L35.3648 40.0723C34.7531 39.8207 34.2769 39.3997 33.9568 38.8851C33.3826 38.0698 33.2022 37.0027 33.5806 36.0115C33.7281 35.625 33.9515 35.272 34.2378 34.9733C35.287 33.8789 37.3136 33.351 38.8 32.9638C38.9656 32.9207 39.1244 32.8793 39.2744 32.8391C39.342 32.3353 39.3901 31.8289 39.4186 31.3212C35.8444 32.0713 32.6314 32.6478 29.6115 33.0501C29.0828 34.878 28.0513 36.5348 26.6184 37.8226C24.7376 39.5129 22.298 40.448 19.7691 40.448L19.7102 40.4478L19.6513 40.448C17.1223 40.448 14.6827 39.5129 12.8019 37.8226C11.3703 36.536 10.3395 34.8811 9.81035 33.0553Z" fill="url(#paint0_linear_157_17984)"/>
<path fill-rule="evenodd" clip-rule="evenodd" d="M22.0611 15.8116L19.6277 17.2169L17.1943 15.8116V5.63789L12.3192 8.45342C11.6733 8.82646 11.2754 9.51572 11.2754 10.2616V18.6695C11.2754 19.4154 11.6733 20.1047 12.3192 20.4777L17.1943 23.2933V29.9224C11.9898 29.7304 6.61317 28.9389 0 27.5434V6.26425C0 2.8046 2.80459 5.72205e-06 6.26424 5.72205e-06H33.1559C36.6155 5.72205e-06 39.4201 2.8046 39.4201 6.26425V27.5434C32.7372 28.946 27.317 29.7418 22.0611 29.9266V23.2933L26.9362 20.4777C27.5822 20.1047 27.98 19.4154 27.98 18.6695V10.2616C27.98 9.51572 27.5822 8.82646 26.9362 8.45342L22.0611 5.63787V15.8116Z" fill="url(#paint1_linear_157_17984)"/>
<defs>
<linearGradient id="paint0_linear_157_17984" x1="30.808" y1="47.047" x2="2.87122" y2="19.1042" gradientUnits="userSpaceOnUse">
<stop stop-color="#FFCC05"/>
<stop offset="1" stop-color="#F9A31A"/>
</linearGradient>
<linearGradient id="paint1_linear_157_17984" x1="30.8079" y1="23.6178" x2="-7.8625" y2="-2.18357" gradientUnits="userSpaceOnUse">
<stop stop-color="#FFCC05"/>
<stop offset="1" stop-color="#F9A31A"/>
</linearGradient>
</defs>
</svg>
