<svg xmlns="http://www.w3.org/2000/svg" fill="none" viewBox="0.79 0.5 230.61 77.81">
<path d="M94.5608 73.1407H86.8426V50.8027H77.8584V43.8195H103.545V50.8027H94.5608V73.1407Z" fill="#FEB700"/>
<path d="M112.881 73.549C106.388 73.549 101.406 68.4444 101.406 62.1554C101.406 55.8665 106.388 50.7618 112.881 50.7618C119.374 50.7618 124.356 55.8665 124.356 62.1554C124.356 68.4444 119.374 73.549 112.881 73.549ZM112.881 67.3009C115.045 67.3009 117.087 65.5858 117.087 62.1554C117.087 58.7251 115.045 57.0508 112.881 57.0508C110.716 57.0508 108.675 58.7251 108.675 62.1554C108.675 65.5858 110.716 67.3009 112.881 67.3009Z" fill="#FEB700"/>
<path d="M136.421 73.549C129.928 73.549 124.946 68.4444 124.946 62.1554C124.946 55.8665 129.928 50.7618 136.421 50.7618C142.914 50.7618 147.897 55.8665 147.897 62.1554C147.897 68.4444 142.914 73.549 136.421 73.549ZM136.421 67.3009C138.586 67.3009 140.628 65.5858 140.628 62.1554C140.628 58.7251 138.586 57.0508 136.421 57.0508C134.257 57.0508 132.215 58.7251 132.215 62.1554C132.215 65.5858 134.257 67.3009 136.421 67.3009Z" fill="#FEB700"/>
<path d="M156.94 73.1407H149.875V43.8195H156.94V73.1407Z" fill="#FEB700"/>
<path d="M167.278 61.5837V73.1407H160.295V43.8195H167.278V53.5388C168.871 51.8236 170.463 50.7618 173.24 50.7618C177.569 50.7618 180.632 53.6613 180.632 59.011V73.1407H173.649V61.3387C173.649 58.5617 172.669 57.0508 170.545 57.0508C168.83 57.0508 167.278 58.2759 167.278 61.5837Z" fill="#FEB700"/>
<path d="M191.718 46.0655C191.718 48.3524 189.88 50.0267 187.226 50.0267C184.571 50.0267 182.734 48.3524 182.734 46.0655C182.734 43.7378 184.571 42.0635 187.226 42.0635C189.88 42.0635 191.718 43.7378 191.718 46.0655ZM190.779 73.1407H183.795V51.1702H190.779V73.1407Z" fill="#FEB700"/>
<path d="M201.119 63.013V73.1407H194.136V51.1702H200.547V55.0497C202.221 52.477 205.692 51.0068 209.204 51.0068V58.2759C204.263 57.7858 201.119 58.1534 201.119 63.013Z" fill="#FEB700"/>
<path d="M220.381 73.5082C213.602 73.5082 209.069 68.9344 209.069 62.1146C209.069 55.5398 213.806 50.7618 220.34 50.7618C227.609 50.7618 232.469 56.6832 231.203 63.9114H216.297C216.665 66.6884 217.972 68.0768 220.218 68.0768C222.178 68.0768 223.485 67.2601 224.097 65.6674H231.081C229.733 70.6904 225.853 73.5082 220.381 73.5082ZM220.177 55.9073C218.094 55.9073 216.869 57.0916 216.379 59.5418H223.73C223.648 57.3366 222.26 55.9073 220.177 55.9073Z" fill="#FEB700"/>
<path d="M84.1246 32.0578H80.0371V5.37778H84.1246V32.0578Z" fill="#002B41"/>
<path d="M92.4342 20.9473V32.0578H88.6812V12.3636H92.1741V15.6336C93.5119 13.4413 95.7414 11.9921 98.454 11.9921C102.504 11.9921 105.18 14.5932 105.18 19.3124V32.0578H101.427V20.5758C101.427 17.1943 99.9403 15.2992 97.1534 15.2992C94.5895 15.2992 92.4342 17.4544 92.4342 20.9473Z" fill="#002B41"/>
<path d="M107.823 22.2107C107.823 16.2282 111.241 11.9921 116.555 11.9921C119.193 11.9921 121.497 13.3298 122.872 15.7451V5.37778H126.625V32.0578H123.132V28.5278C121.72 31.0174 119.342 32.4294 116.555 32.4294C111.241 32.4294 107.823 28.119 107.823 22.2107ZM111.724 22.2107C111.724 26.5955 114.028 29.0851 117.298 29.0851C120.494 29.0851 122.872 26.484 122.872 22.1364C122.872 17.7145 120.42 15.2992 117.298 15.2992C114.028 15.2992 111.724 17.7517 111.724 22.2107Z" fill="#002B41"/>
<path d="M143.213 23.9572V12.3636H146.966V32.0578H143.473V28.9365C142.432 30.9802 140.129 32.4294 137.453 32.4294C133.477 32.4294 130.727 30.0884 130.727 25.0348V12.3636H134.48V24.2916C134.48 27.7103 136.19 29.1223 138.642 29.1223C141.169 29.1223 143.213 27.0414 143.213 23.9572Z" fill="#002B41"/>
<path d="M166.856 26.1867C166.856 30.0513 163.846 32.4294 158.606 32.4294C153.404 32.4294 150.32 29.8655 149.948 25.6294H153.553C153.701 28.0819 155.671 29.6054 158.681 29.6054C161.319 29.6054 163.065 28.6764 163.065 26.8184C163.065 25.1835 162.062 24.4774 159.61 23.9944L156.414 23.3998C152.772 22.6938 150.729 20.8359 150.729 17.8632C150.729 14.4074 153.739 11.9921 158.309 11.9921C163.028 11.9921 166.224 14.5189 166.558 18.5692H162.954C162.731 16.191 160.985 14.8161 158.346 14.8161C155.968 14.8161 154.37 15.8194 154.37 17.5287C154.37 19.1266 155.374 19.8697 157.752 20.3156L161.096 20.9473C164.998 21.6534 166.856 23.3627 166.856 26.1867Z" fill="#002B41"/>
<path d="M180.881 28.4163V31.7234C179.729 32.2436 178.726 32.4294 177.536 32.4294C173.895 32.4294 171.368 30.46 171.368 26.1124V15.5593H167.021V12.3636H171.368V6.52971H175.121V12.3636H181.067V15.5593H175.121V25.2578C175.121 27.9704 176.422 28.9365 178.428 28.9365C179.32 28.9365 180.1 28.7879 180.881 28.4163Z" fill="#002B41"/>
<path d="M187.472 21.9878V32.0578H183.719V12.3636H187.212V16.5254C188.587 13.8128 191.56 12.1035 194.793 12.1035V16.0052C190.557 15.7823 187.472 17.6402 187.472 21.9878Z" fill="#002B41"/>
<path d="M201.404 7.79311C201.404 9.20515 200.29 10.2828 198.692 10.2828C197.094 10.2828 195.942 9.20515 195.942 7.79311C195.942 6.34391 197.094 5.30347 198.692 5.30347C200.29 5.30347 201.404 6.34391 201.404 7.79311ZM200.587 32.0578H196.834V12.3636H200.587V32.0578Z" fill="#002B41"/>
<path d="M216.796 32.0578V29.0108C215.57 31.2032 213.377 32.4294 210.479 32.4294C206.392 32.4294 203.716 30.0884 203.716 26.484C203.716 22.6195 206.8 20.6129 212.671 20.6129C213.823 20.6129 214.752 20.6501 216.35 20.8359V19.3867C216.35 16.5626 214.827 14.9648 212.225 14.9648C209.476 14.9648 207.804 16.5998 207.692 19.3495H204.273C204.459 14.9276 207.618 11.9921 212.225 11.9921C217.093 11.9921 219.917 14.7418 219.917 19.4238V32.0578H216.796ZM207.283 26.3725C207.283 28.4163 208.807 29.754 211.222 29.754C214.381 29.754 216.35 27.7846 216.35 24.7747V23.1769C214.901 22.9911 213.86 22.9539 212.894 22.9539C209.141 22.9539 207.283 24.0687 207.283 26.3725Z" fill="#002B41"/>
<path d="M227.797 32.0578H224.006V5.37778H227.797V32.0578Z" fill="#002B41"/>
<path fill-rule="evenodd" clip-rule="evenodd" d="M16.0558 51.9433C11.3554 51.3177 6.35436 50.4185 0.791016 49.2446C0.83545 50.0339 0.910278 50.821 1.0153 51.6043C1.24877 51.6668 1.49592 51.7312 1.75349 51.7983C4.06674 52.4009 7.2204 53.2224 8.85317 54.9255C9.2987 55.3902 9.64647 55.9396 9.87593 56.541C10.4649 58.0836 10.184 59.7441 9.29049 61.0129C8.79231 61.8138 8.05124 62.4689 7.09936 62.8605L7.00861 62.8979C6.77785 62.9934 6.57161 63.1398 6.40521 63.326C6.34922 63.3887 6.29823 63.4553 6.25258 63.5253C6.20126 63.6236 6.15974 63.7272 6.12884 63.8344C6.05971 64.0744 6.04549 64.3268 6.08722 64.573C6.12895 64.8192 6.22557 65.0529 6.3699 65.2567C8.36672 68.0952 10.8324 70.573 13.6613 72.5839C13.8649 72.7286 14.0985 72.8255 14.3447 72.8674C14.591 72.9094 14.8435 72.8953 15.0835 72.8262C15.3235 72.7572 15.5449 72.6349 15.7312 72.4685C15.8906 72.3261 16.0208 72.1546 16.1149 71.9634C16.1201 71.9518 16.1251 71.9401 16.13 71.9284C16.1505 71.879 16.1718 71.83 16.1939 71.7814L16.1967 71.7745C16.4498 71.1625 16.8265 70.6093 17.3032 70.1495C17.78 69.6897 18.3465 69.3332 18.9674 69.1023C19.5882 68.8715 20.2501 68.7712 20.9115 68.8079C21.5729 68.8445 22.2196 69.0172 22.8111 69.3152C23.2601 69.5398 23.6701 69.835 24.0255 70.1895C24.7053 70.8825 25.1657 71.7604 25.3491 72.7136C25.5325 73.6667 25.4308 74.6528 25.0566 75.5485C24.9697 75.7585 24.9262 75.9836 24.9282 76.2104C24.9297 76.316 24.9409 76.4217 24.9618 76.5263C24.9835 76.6354 25.0156 76.7416 25.0572 76.8436C25.0809 76.9006 25.1076 76.9563 25.1375 77.0106C25.2596 77.2328 25.43 77.4247 25.6362 77.5721C25.8424 77.7196 26.079 77.819 26.3287 77.8628C28.0269 78.1562 29.7437 78.3052 31.461 78.3099C33.1782 78.3052 34.8951 78.1562 36.5932 77.8628C36.8429 77.819 37.0796 77.7196 37.2858 77.5721C37.4919 77.4247 37.6624 77.2328 37.7845 77.0106C37.8144 76.9563 37.8412 76.9004 37.8648 76.8433C37.9064 76.7414 37.9384 76.6353 37.9602 76.5263C37.9811 76.4216 37.9922 76.3158 37.9938 76.2101C37.9958 75.9834 37.9522 75.7584 37.8654 75.5485C37.4912 74.6528 37.3894 73.6667 37.5728 72.7136C37.7562 71.7604 38.2166 70.8825 38.8965 70.1895C39.2518 69.835 39.6618 69.5398 40.1108 69.3152C40.7024 69.0172 41.3491 68.8445 42.0105 68.8079C42.6719 68.7712 43.3337 68.8715 43.9546 69.1023C44.5755 69.3332 45.142 69.6897 45.6187 70.1495C46.0955 70.6093 46.4721 71.1625 46.7252 71.7745L46.728 71.7814C46.7501 71.83 46.7714 71.879 46.792 71.9284C46.7969 71.9401 46.8019 71.9518 46.807 71.9634C46.9012 72.1546 47.0314 72.3261 47.1908 72.4685C47.3771 72.6349 47.5984 72.7572 47.8385 72.8262C48.0785 72.8953 48.331 72.9094 48.5772 72.8674C48.8235 72.8255 49.057 72.7286 49.2607 72.5839C52.0895 70.573 54.5552 68.0952 56.5521 65.2567C56.6964 65.0529 56.793 64.8192 56.8347 64.573C56.8765 64.3268 56.8622 64.0744 56.7931 63.8344C56.7622 63.7272 56.7207 63.6236 56.6694 63.5253C56.6237 63.4553 56.5727 63.3887 56.5168 63.326C56.3503 63.1398 56.1441 62.9934 55.9133 62.8979L55.8226 62.8605C54.8707 62.4689 54.1297 61.8138 53.6315 61.0129C52.738 59.7442 52.4571 58.0836 53.046 56.541C53.2755 55.9396 53.6233 55.3902 54.0688 54.9255C55.7016 53.2224 58.8552 52.4009 61.1685 51.7983C61.426 51.7312 61.6732 51.6668 61.9067 51.6043C62.0117 50.821 62.0865 50.0339 62.1309 49.2446C56.5685 50.412 51.5682 51.3092 46.8685 51.9352C46.0455 54.7787 44.4407 57.356 42.2115 59.3595C39.2846 61.9899 35.4882 63.4451 31.5526 63.4451L31.461 63.4448L31.3693 63.4451C27.4338 63.4451 23.6373 61.9899 20.7104 59.3595C18.4833 57.3579 16.8795 54.7836 16.0558 51.9433Z" fill="url(#paint0_linear_1257_2878)"/>
<path fill-rule="evenodd" clip-rule="evenodd" d="M35.1234 25.1065L31.3367 27.2935L27.5499 25.1065V9.27428L19.9632 13.6558C18.958 14.2363 18.3389 15.3089 18.3389 16.4697V29.554C18.3389 30.7148 18.958 31.7874 19.9632 32.3679L27.5499 36.7494V47.0648C19.4503 46.7662 11.0829 45.5344 0.791016 43.3627V10.2482C0.791016 4.86438 5.1555 0.499889 10.5394 0.499889H52.3879C57.7718 0.499889 62.1362 4.86439 62.1362 10.2483V43.3627C51.7368 45.5452 43.3022 46.7837 35.1234 47.0713V36.7494L42.7101 32.3679C43.7153 31.7874 44.3345 30.7148 44.3345 29.554V16.4697C44.3345 15.3089 43.7153 14.2363 42.7101 13.6558L35.1234 9.27425V25.1065Z" fill="url(#paint1_linear_1257_2878)"/>
<defs>
<linearGradient id="paint0_linear_1257_2878" x1="48.7313" y1="73.7148" x2="5.26008" y2="30.2308" gradientUnits="userSpaceOnUse">
<stop stop-color="#FFCC05"/>
<stop offset="1" stop-color="#F9A31A"/>
</linearGradient>
<linearGradient id="paint1_linear_1257_2878" x1="48.734" y1="37.2537" x2="-11.4445" y2="-2.89821" gradientUnits="userSpaceOnUse">
<stop stop-color="#FFCC05"/>
<stop offset="1" stop-color="#F9A31A"/>
</linearGradient>
</defs>
</svg>